# xmcd
#
# Track frame offsets: 
#        150
#        13408
#        24227
#        36755
#        49700
#        62996
#        74730
#        85669
#        98281
#        107257
#        118782
#
# Disc length: 1740 seconds
#
# Revision: 0
# Processed by: cddbd v1.5.1PL2 Copyright (c) Steve Scherf et al.
# Submitted via: ExactAudioCopy v0.95b1
#
DISCID=8706ca0b
DTITLE=Tammy Wynette - Tammy's Touch
DYEAR=1900
DGENRE=Country
TTITLE0=I'll See Him Through
TTITLE1=Love Me, Love Me
TTITLE2=It's Just A Matter Of Time
TTITLE3=Cold Lonely Feeling
TTITLE4=The Divorce Sale
TTITLE5=He Loves Me All The Way
TTITLE6=He Thinks I Love Him
TTITLE7=Our Last Night Together
TTITLE8=A Lighter Shade Of Blue
TTITLE9=Lonely Days
TTITLE10=You Make My Skies Turn Blue
EXTD=
EXTT0=
EXTT1=
EXTT2=
EXTT3=
EXTT4=
EXTT5=
EXTT6=
EXTT7=
EXTT8=
EXTT9=
EXTT10=
PLAYORDER=
